<?xml version="1.0" encoding="UTF-8" standalone="no"?> <!-- Created with Vectornator for iOS (http://vectornator.io/) --><!DOCTYPE svg PUBLIC "-//W3C//DTD SVG 1.1//EN" "http://www.w3.org/Graphics/SVG/1.1/DTD/svg11.dtd">
<svg height="100%" style="fill-rule:nonzero;clip-rule:evenodd;stroke-linecap:round;stroke-linejoin:round;" xmlns:xlink="http://www.w3.org/1999/xlink" xmlns="http://www.w3.org/2000/svg" xml:space="preserve" width="100%" xmlns:vectornator="http://vectornator.io" version="1.1" viewBox="0 0 100 125">
<metadata>
<vectornator:setting key="DimensionsVisible" value="1"/>
<vectornator:setting key="PencilOnly" value="0"/>
<vectornator:setting key="SnapToPoints" value="0"/>
<vectornator:setting key="OutlineMode" value="0"/>
<vectornator:setting key="CMYKEnabledKey" value="0"/>
<vectornator:setting key="RulersVisible" value="1"/>
<vectornator:setting key="SnapToEdges" value="0"/>
<vectornator:setting key="GuidesVisible" value="1"/>
<vectornator:setting key="DisplayWhiteBackground" value="0"/>
<vectornator:setting key="doHistoryDisabled" value="0"/>
<vectornator:setting key="SnapToGuides" value="1"/>
<vectornator:setting key="TimeLapseWatermarkDisabled" value="0"/>
<vectornator:setting key="Units" value="Points"/>
<vectornator:setting key="DynamicGuides" value="0"/>
<vectornator:setting key="IsolateActiveLayer" value="0"/>
<vectornator:setting key="SnapToGrid" value="0"/>
</metadata>
<defs/>
<g id="Untitled" vectornator:layerName="Untitled">
<path d="M67.408+15.29C67.523+14.991+67.668+14.709+67.82+14.435C67.857+14.37+67.894+14.305+67.933+14.242C68.091+13.98+68.261+13.724+68.454+13.49C68.471+13.467+68.489+13.449+68.507+13.429C68.688+13.21+68.882+13.009+69.084+12.815C69.137+12.767+69.188+12.722+69.236+12.674C69.46+12.478+69.691+12.292+69.935+12.126C69.97+12.101+70.007+12.084+70.043+12.058C70.267+11.915+70.495+11.784+70.731+11.666C70.79+11.638+70.846+11.608+70.906+11.581C71.174+11.457+71.447+11.35+71.727+11.261C71.776+11.246+71.829+11.234+71.876+11.219C72.128+11.146+72.385+11.088+72.645+11.045C72.703+11.035+72.757+11.023+72.815+11.015C73.11+10.975+73.409+10.95+73.709+10.947C73.73+10.947+73.751+10.942+73.772+10.942C73.86+10.942+73.947+10.952+74.035+10.955C74.132+10.957+74.227+10.96+74.326+10.97C74.454+10.977+74.582+10.997+74.711+11.015C74.797+11.028+74.886+11.036+74.972+11.051C75.123+11.081+75.273+11.116+75.421+11.154C75.488+11.172+75.552+11.181+75.617+11.202C75.834+11.262+76.049+11.333+76.263+11.416C79.781+12.794+81.511+16.756+80.134+20.272C80.017+20.574+79.873+20.855+79.722+21.13C79.685+21.195+79.648+21.261+79.609+21.323C79.451+21.585+79.281+21.842+79.09+22.075C79.071+22.097+79.052+22.115+79.032+22.137C78.854+22.354+78.662+22.555+78.46+22.746C78.408+22.794+78.356+22.844+78.304+22.892C78.082+23.088+77.853+23.272+77.611+23.435C77.572+23.46+77.533+23.483+77.494+23.508C77.275+23.652+77.048+23.777+76.816+23.893C76.754+23.926+76.695+23.956+76.633+23.984C76.368+24.107+76.097+24.213+75.82+24.301C75.765+24.319+75.71+24.331+75.656+24.346C75.41+24.416+75.161+24.471+74.907+24.517C74.845+24.527+74.784+24.539+74.722+24.547C74.431+24.589+74.136+24.609+73.84+24.612C73.818+24.614+73.794+24.619+73.771+24.619C73.677+24.619+73.582+24.609+73.484+24.606C73.398+24.601+73.312+24.599+73.224+24.591C73.084+24.581+72.945+24.561+72.804+24.541C72.73+24.531+72.655+24.523+72.576+24.511C72.414+24.481+72.253+24.44+72.091+24.4C72.037+24.387+71.984+24.377+71.929+24.362C71.711+24.301+71.496+24.229+71.283+24.146C67.768+22.769+66.033+18.802+67.408+15.29ZM40.299+40.054C40.3+40.056+40.301+40.059+40.303+40.059C40.482+40.419+40.693+40.781+40.943+41.146L40.95+41.143C41.106+41.397+41.286+41.649+41.509+41.865L50.975+51.288L51.581+51.892L51.581+51.892L54.769+55.06L52.085+74.43C51.813+76.485+53.259+78.368+55.311+78.636C55.479+78.66+55.647+78.671+55.813+78.671C55.862+78.671+55.91+78.66+55.959+78.658C56.056+78.652+56.151+78.642+56.247+78.63C56.381+78.615+56.515+78.593+56.643+78.563C56.747+78.542+56.846+78.512+56.95+78.481C57+78.462+57.054+78.456+57.104+78.438L57.061+78.438C58.338+77.977+59.329+76.85+59.52+75.412L62.469+54.245C62.499+54.004+62.502+53.766+62.489+53.536L62.477+53.549C62.444+52.95+62.272+52.39+61.983+51.894L61.989+51.894C61.983+51.884+61.975+51.876+61.968+51.868C61.813+51.605+61.632+51.357+61.416+51.139C61.357+51.077+61.312+51.003+61.253+50.944L48.823+38.568C54.209+31.027+59.898+30.584+59.898+30.584L61.426+38.814C61.619+39.815+62.259+40.605+63.089+41.055C63.246+41.168+63.409+41.271+63.592+41.357L72.863+45.769C74.488+46.536+76.431+45.839+77.204+44.212C77.973+42.585+77.273+40.643+75.646+39.876L75.359+39.737C75.357+39.737+75.357+39.737+75.355+39.737L67.529+36L65.91+27.488C65.882+27.344+65.832+27.211+65.788+27.078C66.626+25.182+66.471+22.908+65.142+21.124C64.796+20.662+64.394+20.264+63.953+19.932L63.954+19.927C60.805+17.286+54.683+19.706+54.683+19.706C54.683+19.706+44.141+23.977+40.311+33.616C39.449+35.402+39.087+37.631+40.299+40.054L40.299+40.054L40.299+40.054ZM77.111+46.939C77.072+47.024+77.023+47.1+76.961+47.155C76.773+47.326+76.462+47.411+76.166+47.454C75.566+47.703+74.92+47.846+74.252+47.846C74.193+47.846+74.134+47.836+74.075+47.836C73.548+48.178+73.167+48.732+73.083+49.405C72.934+50.618+73.793+51.725+75.006+51.873C75.301+51.908+77.952+52.184+79.884+50.477C80.702+49.752+81.674+48.415+81.674+46.12C81.674+43.487+80.412+41.788+78.846+40.81C78.891+40.914+78.952+41.009+78.992+41.117C79.445+42.382+79.38+43.745+78.804+44.963C78.42+45.774+77.825+46.443+77.111+46.939ZM95.482+71.507C95.482+81.186+87.611+89.059+77.931+89.059C69.962+89.059+63.228+83.714+61.092+76.424C61.166+76.17+61.236+75.914+61.271+75.643L63.167+62.057C64.408+60.127+66.012+58.453+67.887+57.139C67.676+56.294+67.489+55.461+67.327+54.647L63.575+59.126L64.221+54.486C64.444+52.822+63.901+51.175+62.735+49.952C62.661+49.856+62.59+49.776+62.514+49.696L60.274+47.467L66.419+47.467C66.355+46.383+66.331+45.43+66.324+44.612L70.837+46.758C70.962+49.022+71.269+51.914+71.969+55.024C73.836+54.344+75.837+53.959+77.935+53.959C87.611+53.957+95.482+61.83+95.482+71.507ZM91.059+71.507C91.059+64.27+85.17+58.381+77.934+58.381C76.252+58.381+74.651+58.711+73.171+59.289C74.477+63.075+76.463+66.871+79.507+69.955C80.366+70.822+80.356+72.225+79.486+73.084C79.054+73.509+78.493+73.721+77.931+73.721C77.361+73.721+76.789+73.501+76.357+73.063C73.027+69.686+70.794+65.668+69.294+61.653C66.55+64.057+64.807+67.582+64.807+71.507C64.807+78.746+70.696+84.635+77.934+84.635C85.17+84.635+91.059+78.746+91.059+71.507ZM50.316+77.466C47.812+77.466+45.666+75.914+44.784+73.721L39.463+73.721C38.371+82.356+30.995+89.059+22.068+89.059C12.39+89.059+4.517+81.186+4.517+71.507C4.517+61.83+12.39+53.957+22.068+53.957C25.558+53.957+28.805+54.993+31.541+56.757L37.645+49.474L35.996+45.92L32.324+45.92C31.618+45.92+30.955+45.586+30.539+45.015C30.121+44.446+30+43.714+30.213+43.04C30.669+41.603+32.383+39.171+35.922+39.171C36.635+39.171+37.395+39.281+38.177+39.488C38.468+40.388+38.891+41.281+39.485+42.147L39.602+42.318C39.627+42.351+39.649+42.386+39.673+42.421L40.161+43.13L40.251+43.108C40.259+43.118+40.266+43.123+40.272+43.13L43.074+45.92L40.873+45.92L41.589+47.467L44.628+47.467L49.073+51.893L43.646+51.893L49.994+65.563C50.102+65.559+50.206+65.545+50.316+65.545C50.727+65.545+51.122+65.606+51.509+65.684L50.331+74.186C50.18+75.324+50.381+76.446+50.893+77.436C50.7+77.453+50.512+77.466+50.316+77.466ZM34.992+73.721L22.068+73.721C21.209+73.721+20.426+73.223+20.063+72.446C19.7+71.667+19.82+70.746+20.373+70.09L28.672+60.183C26.73+59.045+24.478+58.383+22.068+58.383C14.83+58.383+8.942+64.273+8.942+71.509C8.942+78.748+14.83+84.637+22.068+84.637C28.551+84.635+33.936+79.908+34.992+73.721ZM34.992+69.296C34.59+66.93+33.557+64.777+32.066+63.024L26.807+69.296L34.992+69.296ZM45.981+67.43L39.703+53.905L34.928+59.604C37.355+62.225+38.993+65.58+39.463+69.296L44.784+69.296C45.065+68.6+45.474+67.965+45.981+67.43ZM59.607+78.891C58.611+79.846+57.273+80.442+55.81+80.442C55.566+80.442+55.318+80.424+55.078+80.391C53.642+80.203+52.367+79.471+51.473+78.339L51.565+78.497C50.594+78.73+49.875+79.605+49.875+80.646C49.875+81.87+50.864+82.861+52.087+82.861L58.28+82.861C59.504+82.861+60.494+81.87+60.494+80.646C60.492+79.928+60.143+79.292+59.607+78.891Z" opacity="1" fill="#000000"/>
</g>
</svg>
